<?xml version="1.0" encoding="UTF-8"?>
<svg width="24px" height="24px" viewBox="0 0 24 24" version="1.1" xmlns="http://www.w3.org/2000/svg" xmlns:xlink="http://www.w3.org/1999/xlink">
    <title>Iconly/Bulk/Bookmark</title>
    <g id="Iconly/Bulk/Bookmark" stroke="none" stroke-width="1" fill="none" fill-rule="evenodd">
        <g id="Bookmark" transform="translate(4.000000, 2.000000)" fill="#000000" fill-rule="nonzero">
            <path d="M7.99117971,16.6215262 L1.49944873,19.8641008 C1.00920819,20.1302192 0.397682727,19.9525481 0.123484013,19.4643313 C0.043404087,19.3108374 0.00105752372,19.1402321 -5.24025268e-14,18.9668404 L-5.24025268e-14,11.7088036 C-5.24025268e-14,12.4283887 0.405733186,12.872577 1.47298787,13.3700679 L7.99117971,16.6215262 Z" id="Bookmark-2" opacity="0.400000006"></path>
            <path d="M11.0694598,0 C13.7772878,0 15.9735391,1.06605192 16,3.79336809 L16,3.79336809 L16,18.9668404 C15.998918,19.1374024 15.9565307,19.3051222 15.876516,19.4554476 C15.7479482,19.7006536 15.5259405,19.8826876 15.2614691,19.959752 C14.9969977,20.0368164 14.7127851,20.0022901 14.4740904,19.8641008 L14.4740904,19.8641008 L7.99117971,16.6215262 L1.47298787,13.3700679 C0.405733186,12.872577 8.17124146e-14,12.4283887 8.17124146e-14,11.7088036 L8.17124146e-14,11.7088036 L8.17124146e-14,3.79336809 C8.17124146e-14,1.06605192 2.19625138,0 4.8952591,0 L4.8952591,0 Z M11.7486218,6.04096089 L4.22491731,6.04096089 C3.79137074,6.04096089 3.4399118,6.39494927 3.4399118,6.83161607 C3.4399118,7.26828286 3.79137074,7.62227124 4.22491731,7.62227124 L4.22491731,7.62227124 L11.7486218,7.62227124 C12.1821684,7.62227124 12.5336273,7.26828286 12.5336273,6.83161607 C12.5336273,6.39494927 12.1821684,6.04096089 11.7486218,6.04096089 L11.7486218,6.04096089 Z"></path>
        </g>
    </g>
</svg>