<svg xmlns="http://www.w3.org/2000/svg"
     viewBox="0 0 488.3 488.3" style="enable-background:new 0 0 488.3 488.3" xml:space="preserve">
  <path fill="currentColor"
        d="M314.25 85.4h-227c-21.3 0-38.6 17.3-38.6 38.6v325.7c0 21.3 17.3 38.6 38.6 38.6h227c21.3 0 38.6-17.3 38.6-38.6V124c-.1-21.3-17.4-38.6-38.6-38.6zm11.5 364.2c0 6.4-5.2 11.6-11.6 11.6h-227c-6.4 0-11.6-5.2-11.6-11.6V124c0-6.4 5.2-11.6 11.6-11.6h227c6.4 0 11.6 5.2 11.6 11.6v325.6z"/>
  <path fill="currentColor"
        d="M401.05 0h-227c-21.3 0-38.6 17.3-38.6 38.6 0 7.5 6 13.5 13.5 13.5s13.5-6 13.5-13.5c0-6.4 5.2-11.6 11.6-11.6h227c6.4 0 11.6 5.2 11.6 11.6v325.7c0 6.4-5.2 11.6-11.6 11.6-7.5 0-13.5 6-13.5 13.5s6 13.5 13.5 13.5c21.3 0 38.6-17.3 38.6-38.6V38.6c0-21.3-17.3-38.6-38.6-38.6z"/></svg>