<?xml version="1.0" encoding="UTF-8"?>
<svg width="24px" height="24px" viewBox="0 0 24 24" version="1.1" xmlns="http://www.w3.org/2000/svg" xmlns:xlink="http://www.w3.org/1999/xlink">
    <title>Iconly/Bulk/Setting</title>
    <g id="Iconly/Bulk/Setting" stroke="none" stroke-width="1" fill="none" fill-rule="evenodd">
        <g id="Setting" transform="translate(2.499897, 2.000100)" fill="#000000" fill-rule="nonzero">
            <path d="M9.51207539,12.83 C7.9076023,12.83 6.60971643,11.58 6.60971643,10.01 C6.60971643,8.44 7.9076023,7.18 9.51207539,7.18 C11.1165485,7.18 12.3837756,8.44 12.3837756,10.01 C12.3837756,11.58 11.1165485,12.83 9.51207539,12.83" id="Path"></path>
            <path d="M18.730131,12.37 C18.5359591,12.07 18.2600306,11.77 17.9023455,11.58 C17.6161974,11.44 17.4322451,11.21 17.2687319,10.94 C16.7475337,10.08 17.0541209,8.95 17.9227847,8.44 C18.944742,7.87 19.2717684,6.6 18.6790331,5.61 L17.9943217,4.43 C17.411806,3.44 16.1343592,3.09 15.1226214,3.67 C14.2232989,4.15 13.0684871,3.83 12.5472888,2.98 C12.3837756,2.7 12.2917995,2.4 12.3122386,2.1 C12.3428973,1.71 12.2202625,1.34 12.0363101,1.04 C11.6581859,0.42 10.9734745,0 10.217226,0 L8.77626608,0 C8.03023719,0.02 7.34552574,0.42 6.96740151,1.04 C6.77322961,1.34 6.6608143,1.71 6.68125344,2.1 C6.70169259,2.4 6.60971643,2.7 6.44620325,2.98 C5.92500498,3.83 4.77019314,4.15 3.88109021,3.67 C2.85913283,3.09 1.59190568,3.44 0.999170395,4.43 L0.314458948,5.61 C-0.26805676,6.6 0.0589696023,7.87 1.07070741,8.44 C1.93937119,8.95 2.2459584,10.08 1.73497971,10.94 C1.56124696,11.21 1.37729463,11.44 1.09114656,11.58 C0.743681049,11.77 0.437093834,12.07 0.273580653,12.37 C-0.104543579,12.99 -0.0841044313,13.77 0.2940198,14.42 L0.999170395,15.62 C1.37729463,16.26 2.08244522,16.66 2.81825454,16.66 C3.16572005,16.66 3.574503,16.56 3.90152936,16.36 C4.15701871,16.19 4.46360592,16.13 4.80085186,16.13 C5.81258967,16.13 6.6608143,16.96 6.68125344,17.95 C6.68125344,19.1 7.62145424,20 8.8069248,20 L10.1967868,20 C11.3720378,20 12.3122386,19.1 12.3122386,17.95 C12.3428973,16.96 13.191122,16.13 14.2028598,16.13 C14.5298861,16.13 14.8364734,16.19 15.1021823,16.36 C15.4292086,16.56 15.827772,16.66 16.1854571,16.66 C16.9110468,16.66 17.6161974,16.26 17.9943217,15.62 L18.7096918,14.42 C19.0775965,13.75 19.1082552,12.99 18.730131,12.37" id="Path" opacity="0.400000006"></path>
        </g>
    </g>
</svg>