<?xml version="1.0" encoding="UTF-8"?>
<svg width="24px" height="24px" viewBox="0 0 24 24" version="1.1" xmlns="http://www.w3.org/2000/svg" xmlns:xlink="http://www.w3.org/1999/xlink">
    <title>Iconly/Bulk/Chart</title>
    <g id="Iconly/Bulk/Chart" stroke="none" stroke-width="1" fill="none" fill-rule="evenodd">
        <g id="Chart" transform="translate(2.000000, 2.000000)" fill="#000000" fill-rule="nonzero">
            <path d="M14.6755556,0 L5.33333333,0 C1.92888889,0 0,1.92888889 0,5.33333333 L0,14.6666667 C0,18.0711111 1.92888889,20 5.33333333,20 L14.6755556,20 C18.08,20 20,18.0711111 20,14.6666667 L20,5.33333333 C20,1.92888889 18.08,0 14.6755556,0" id="Fill-1" opacity="0.400000006"></path>
            <path d="M5.36871111,7.36897778 C4.91537778,7.36897778 4.54204444,7.74231111 4.54204444,8.20453333 L4.54204444,15.0756444 C4.54204444,15.5289778 4.91537778,15.9023111 5.36871111,15.9023111 C5.83093333,15.9023111 6.20426667,15.5289778 6.20426667,15.0756444 L6.20426667,8.20453333 C6.20426667,7.74231111 5.83093333,7.36897778 5.36871111,7.36897778" id="Fill-4"></path>
            <path d="M10.0353778,4.08897778 C9.58204444,4.08897778 9.20871111,4.46231111 9.20871111,4.92453333 L9.20871111,15.0756444 C9.20871111,15.5289778 9.58204444,15.9023111 10.0353778,15.9023111 C10.4976,15.9023111 10.8709333,15.5289778 10.8709333,15.0756444 L10.8709333,4.92453333 C10.8709333,4.46231111 10.4976,4.08897778 10.0353778,4.08897778" id="Fill-6"></path>
            <path d="M14.6399111,10.9956444 C14.1776889,10.9956444 13.8043556,11.3689778 13.8043556,11.8312 L13.8043556,15.0756444 C13.8043556,15.5289778 14.1776889,15.9023111 14.6310222,15.9023111 C15.0932444,15.9023111 15.4665778,15.5289778 15.4665778,15.0756444 L15.4665778,11.8312 C15.4665778,11.3689778 15.0932444,10.9956444 14.6399111,10.9956444" id="Fill-8"></path>
        </g>
    </g>
</svg>