<?xml version="1.0" encoding="UTF-8"?>
<svg width="24px" height="24px" viewBox="0 0 24 24" version="1.1" xmlns="http://www.w3.org/2000/svg" xmlns:xlink="http://www.w3.org/1999/xlink">
    <title>Iconly/Bulk/Delete</title>
    <g id="Iconly/Bulk/Delete" stroke="none" stroke-width="1" fill="none" fill-rule="evenodd">
        <g id="Delete" transform="translate(3.000000, 2.000000)" fill="#000000" fill-rule="nonzero">
            <path d="M16.6432894,7.4884379 C16.6432894,7.55643552 16.1103307,14.2971996 15.8059218,17.1341003 C15.6153015,18.8750394 14.492976,19.9310024 12.8094878,19.9610014 C11.5159931,19.9900003 10.2497298,20 9.00389021,20 C7.68121893,20 6.38772423,19.9900003 5.13215907,19.9610014 C3.50507888,19.9220027 2.38178085,18.8450404 2.2008861,17.1341003 C1.88772423,14.2871999 1.36449103,7.55643552 1.35476551,7.4884379 C1.34503998,7.28344508 1.41117355,7.0884519 1.54538578,6.93045743 C1.67765291,6.78446254 1.86827318,6.69646562 2.06861898,6.69646562 L15.9391614,6.69646562 C16.1385347,6.69646562 16.3194294,6.78446254 16.4623946,6.93045743 C16.5956343,7.0884519 16.6627404,7.28344508 16.6432894,7.4884379" id="Fill-1" opacity="0.400000006"></path>
            <path d="M18,3.97686081 C18,3.56587519 17.67614,3.24388646 17.2871191,3.24388646 L14.371407,3.24388646 C13.77815,3.24388646 13.2626972,2.82190123 13.1304301,2.22692206 L12.9670413,1.49794757 C12.7384915,0.616978406 11.9497515,-1.50990331e-14 11.0647288,-1.50990331e-14 L6.93624379,-1.50990331e-14 C6.04149557,-1.50990331e-14 5.26053598,0.616978406 5.0232332,1.54594589 L4.87054247,2.22792202 C4.73730279,2.82190123 4.22185001,3.24388646 3.62956559,3.24388646 L0.713853469,3.24388646 C0.323859952,3.24388646 0,3.56587519 0,3.97686081 L0,4.35684751 C0,4.75783348 0.323859952,5.08982186 0.713853469,5.08982186 L17.2871191,5.08982186 C17.67614,5.08982186 18,4.75783348 18,4.35684751 L18,3.97686081 Z" id="Fill-4"></path>
        </g>
    </g>
</svg>