<?xml version="1.0" encoding="UTF-8"?>
<svg width="24px" height="24px" viewBox="0 0 24 24" version="1.1" xmlns="http://www.w3.org/2000/svg" xmlns:xlink="http://www.w3.org/1999/xlink">
    <title>Iconly/Bulk/Graph</title>
    <g id="Iconly/Bulk/Graph" stroke="none" stroke-width="1" fill="none" fill-rule="evenodd">
        <g id="Graph" transform="translate(2.000000, 2.000000)" fill="#000000" fill-rule="nonzero">
            <path d="M8.152754,3.55552761 C8.20368413,3.65919399 8.237323,3.77020981 8.2523868,3.88433813 L8.53082191,8.02425688 L8.53082191,8.02425688 L8.66903307,10.1050779 C8.67046167,10.3190591 8.7040335,10.5316649 8.76866587,10.7360386 C8.9355965,11.1325559 9.33716333,11.3845716 9.77405142,11.3669994 L16.4313342,10.9315476 C16.7196104,10.9267943 16.9980001,11.0346143 17.2052401,11.2312807 C17.3779401,11.3951693 17.4894372,11.6095651 17.524563,11.8401601 L17.5363525,11.9801866 C17.260866,15.7948982 14.4591587,18.9766559 10.6523561,19.797994 C6.84555351,20.6193322 2.94186389,18.8842999 1.06070995,15.534895 C0.518387516,14.5618191 0.179650312,13.4922526 0.0643819183,12.388978 C0.0162285779,12.0623771 -0.00497451535,11.7324952 0.000979225624,11.4025464 C-0.00496594783,7.31273376 2.90747021,3.77695779 6.98433295,2.92456686 C7.47500829,2.84816493 7.95602805,3.10792111 8.152754,3.55552761 Z" id="Path"></path>
            <path d="M10.8700123,0.000819186003 C15.42989,0.11682655 19.2623146,3.39578782 20,7.81229094 L19.9929553,7.84487576 L19.9929553,7.84487576 L19.9728274,7.89227188 L19.9756317,8.0223616 C19.9651826,8.19471218 19.8986437,8.36053991 19.7839681,8.49448471 C19.6645145,8.63401054 19.5013145,8.72903004 19.3215929,8.76590816 L19.2119951,8.78094898 L11.5312118,9.27860816 C11.2757261,9.30380455 11.0213466,9.22142251 10.8313499,9.05195453 C10.6730193,8.91073121 10.5717997,8.72009233 10.543203,8.5146766 L10.0276622,0.845062436 C10.0186901,0.819128783 10.0186901,0.791015148 10.0276622,0.765081496 C10.0347061,0.553672114 10.127765,0.353839855 10.2860482,0.210229821 C10.4443315,0.0666197874 10.6546487,-0.00880036929 10.8700123,0.000819186003 Z" id="Path" opacity="0.400000006"></path>
        </g>
    </g>
</svg>