<?xml version="1.0" encoding="UTF-8"?>
<svg width="24px" height="24px" viewBox="0 0 24 24" version="1.1" xmlns="http://www.w3.org/2000/svg" xmlns:xlink="http://www.w3.org/1999/xlink">
    <title>Iconly/Bulk/Show</title>
    <g id="Iconly/Bulk/Show" stroke="none" stroke-width="1" fill="none" fill-rule="evenodd">
        <g id="Show" transform="translate(2.000000, 4.000000)" fill="#000000" fill-rule="nonzero">
            <path d="M10,0 C12.0682927,0 14.0292683,0.717575758 15.7365854,2.04606061 C17.4439024,3.36387879 18.897561,5.29454545 19.9414634,7.70909091 C20.0195122,7.89236364 20.0195122,8.10666667 19.9414634,8.28121212 C17.8536585,13.110303 14.1365854,16 10,16 L10,16 L9.9902439,16 C5.86341463,16 2.14634146,13.110303 0.0585365854,8.28121212 C-0.0195121951,8.10666667 -0.0195121951,7.89236364 0.0585365854,7.70909091 C2.14634146,2.8790303 5.86341463,0 9.9902439,0 L9.9902439,0 Z M10,4.12121212 C7.84390244,4.12121212 6.09756098,5.8569697 6.09756098,8 C6.09756098,10.1333333 7.84390244,11.8690909 10,11.8690909 C12.1463415,11.8690909 13.8926829,10.1333333 13.8926829,8 C13.8926829,5.8569697 12.1463415,4.12121212 10,4.12121212 Z" id="Fill-1" opacity="0.400000006"></path>
            <path d="M12.4309268,7.99689697 C12.4309268,9.32538182 11.3382439,10.4114424 10.0016585,10.4114424 C8.65531707,10.4114424 7.56263415,9.32538182 7.56263415,7.99689697 C7.56263415,7.83204848 7.58214634,7.67786667 7.61141463,7.52271515 L7.66019512,7.52271515 C8.74312195,7.52271515 9.62117073,6.66938182 9.66019512,5.60174545 C9.7675122,5.58332121 9.88458537,5.57265455 10.0016585,5.57265455 C11.3382439,5.57265455 12.4309268,6.65871515 12.4309268,7.99689697" id="Fill-4"></path>
        </g>
    </g>
</svg>